<?xml version="1.0" encoding="UTF-8" standalone="no"?>
<svg
   xmlns:dc="http://purl.org/dc/elements/1.1/"
   xmlns:cc="http://creativecommons.org/ns#"
   xmlns:rdf="http://www.w3.org/1999/02/22-rdf-syntax-ns#"
   xmlns:svg="http://www.w3.org/2000/svg"
   xmlns="http://www.w3.org/2000/svg"
   viewBox="0 0 1280 1280"
   height="1280"
   width="1280"
   xml:space="preserve"
   id="svg2"
   version="1.1"><metadata
     id="metadata8"><rdf:RDF><cc:Work
         rdf:about=""><dc:format>image/svg+xml</dc:format><dc:type
           rdf:resource="http://purl.org/dc/dcmitype/StillImage" /></cc:Work></rdf:RDF></metadata><defs
     id="defs6"><clipPath
       id="clipPath18"
       clipPathUnits="userSpaceOnUse"><path
         id="path16"
         d="M 215.815,960 C 97.117,960 0,862.883 0,744.184 v 0 -528.368 C 0,97.117 97.117,0 215.815,0 V 0 H 744.184 C 862.883,0 960,97.117 960,215.816 v 0 528.368 C 960,862.883 862.883,960 744.184,960 v 0 z" /></clipPath><linearGradient
       id="linearGradient28"
       spreadMethod="pad"
       gradientTransform="matrix(833.20801,833.20801,833.20801,-833.20801,63.395989,63.395989)"
       gradientUnits="userSpaceOnUse"
       y2="0"
       x2="1"
       y1="0"
       x1="0"><stop
         id="stop24"
         offset="0"
         style="stop-opacity:1;stop-color:#6f0384" /><stop
         id="stop26"
         offset="1"
         style="stop-opacity:1;stop-color:#a221af" /></linearGradient><clipPath
       id="clipPath38"
       clipPathUnits="userSpaceOnUse"><path
         id="path36"
         d="M 0,960 H 960 V 0 H 0 Z" /></clipPath></defs><g
     transform="matrix(1.3333333,0,0,-1.3333333,0,1280)"
     id="g10"><g
       id="g12"><g
         clip-path="url(#clipPath18)"
         id="g14"><g
           id="g20"><g
             id="g22"><path
               id="path30"
               style="fill:url(#linearGradient28);stroke:none"
               d="M 215.815,960 C 97.117,960 0,862.883 0,744.184 v 0 -528.368 C 0,97.117 97.117,0 215.815,0 V 0 H 744.184 C 862.883,0 960,97.117 960,215.816 v 0 528.368 C 960,862.883 862.883,960 744.184,960 v 0 z" /></g></g></g></g><g
       id="g32"><g
         clip-path="url(#clipPath38)"
         id="g34"><g
           transform="translate(482.4932,483.519)"
           id="g40"><path
             id="path42"
             style="fill:#fdfcfd;fill-opacity:1;fill-rule:nonzero;stroke:none"
             d="m 0,0 c 0.223,9.3 -4.798,13.369 -12.099,11.516 -1.939,-0.492 -3.814,-1.305 -5.647,-2.128 -10.608,-4.766 -18.261,-12.751 -24.027,-22.617 -8.421,-14.405 -13.351,-30.013 -14.956,-46.59 -0.766,-7.919 -0.354,-15.853 2.669,-23.397 0.687,-1.714 1.478,-3.443 2.535,-4.945 5.165,-7.346 13.175,-8.005 19.387,-1.506 5.584,5.842 9.037,13.064 11.53,20.568 5.911,17.793 11.458,35.709 16.934,53.642 C -1.958,-9.84 -0.937,-4.012 0,0 m 125.903,2.564 c -0.562,3.228 -0.98,8.71 -2.529,13.852 -2.761,9.16 -9.069,11.314 -16.666,5.45 C 102.379,18.525 98.23,14.324 95.544,9.626 91.344,2.282 87.85,-5.607 85.127,-13.628 78.19,-34.06 73.707,-55.155 69.355,-76.266 c -0.559,-2.715 0.051,-4.642 2.459,-5.769 2.078,-0.972 4.269,-2.028 6.499,-2.292 8.819,-1.041 16.399,2.113 22.054,8.64 3.904,4.506 7.324,9.72 9.737,15.16 3.758,8.471 6.729,17.322 9.571,26.16 3.624,11.27 5.455,22.917 6.228,36.931 m -320.295,-238.591 c -1.306,-0.473 -2.665,-0.834 -3.909,-1.435 -20.156,-9.752 -37.509,-23.062 -51.332,-40.772 -8.636,-11.064 -16.287,-22.753 -20.216,-36.39 -1.18,-4.097 -1.743,-8.559 -1.574,-12.814 0.269,-6.787 6.037,-10.505 12.502,-8.397 2.607,0.849 5.101,2.283 7.388,3.831 7.157,4.845 12.84,11.242 18.081,18.017 12.035,15.56 21.359,32.735 29.286,50.648 3.873,8.748 6.865,17.884 10.256,26.846 l 0.532,0.566 c -0.338,-0.033 -0.676,-0.067 -1.014,-0.1 m 35.645,113.036 c -4.224,-3.987 -8.231,-7.871 -12.348,-11.634 -5.66,-5.174 -11.863,-9.539 -19.146,-12.175 -17.639,-6.386 -33.42,1.825 -38.487,19.848 -2.251,8.007 -1.967,16.02 -0.618,24.048 1.422,8.459 2.692,16.98 4.802,25.277 2.167,8.517 5.136,16.842 7.994,25.169 3.67,10.69 7.461,21.343 11.429,31.926 2.508,6.689 2.412,13.571 2.065,20.46 -0.36,7.158 3.049,11.207 10.127,10.827 5.757,-0.309 11.452,-1.095 15.835,-5.627 5.113,-5.286 6.781,-11.622 4.945,-18.493 -3.482,-13.033 -7.573,-25.902 -11.194,-38.9 -2.954,-10.606 -5.799,-21.251 -8.256,-31.979 -0.849,-3.709 -0.817,-7.762 -0.428,-11.582 0.764,-7.522 6.917,-11.29 13.772,-8.119 3.976,1.839 7.711,4.702 10.81,7.84 9.812,9.933 15.414,22.394 20.101,35.317 1.647,4.538 3.352,9.055 4.977,13.601 3.662,10.244 7.403,20.462 10.9,30.763 2.972,8.754 5.536,17.645 8.479,26.408 4.754,14.153 19.76,26.141 35.009,25.319 7.909,-0.428 9.666,-3.72 8.234,-10.395 -2.65,-12.343 -5.968,-24.555 -9.368,-36.721 -15.121,-54.107 -30.371,-108.179 -45.568,-162.266 -0.332,-1.179 -0.584,-2.381 -0.841,-3.44 52.93,8.604 105.709,17.184 158.974,25.843 2.135,11.23 4.357,22.921 6.783,35.685 -2.104,-1.308 -3.345,-2.099 -4.605,-2.859 -5.607,-3.378 -11.369,-6.381 -17.915,-7.543 -11.55,-2.052 -20.118,3.17 -23.599,14.438 -0.478,1.55 -0.86,3.129 -1.429,5.222 -2.138,-3.78 -3.86,-7.217 -5.936,-10.425 -5.918,-9.144 -13.446,-16.222 -24.528,-18.675 -16.239,-3.592 -32.098,4.874 -37.806,20.502 -3.168,8.675 -4.512,17.756 -4.835,26.957 -0.908,25.828 5.677,50.118 15.227,73.81 4.528,11.235 10.06,21.886 17.423,31.531 5.567,7.294 11.774,13.947 19.288,19.327 12.117,8.677 29.859,10.084 44.022,-2.965 0.881,2.607 1.761,5.015 2.511,7.464 1.977,6.461 7.239,8.251 13.851,7.351 2.598,-0.353 5.186,-1.053 7.672,-1.909 4.951,-1.704 7.631,-5.414 7.676,-10.558 0.03,-3.372 -0.562,-6.802 -1.276,-10.119 -5.528,-25.647 -11.369,-51.229 -16.622,-76.932 -1.669,-8.166 -1.908,-16.63 -2.666,-24.971 -0.151,-1.667 0.126,-3.436 0.527,-5.079 1.007,-4.118 2.853,-5.167 6.78,-3.55 2.844,1.171 5.582,2.7 8.167,4.379 4.098,2.661 6.185,6.468 7.119,11.426 7.049,37.383 14.336,74.723 21.552,112.075 0.088,0.457 0.238,0.902 0.335,1.357 2.216,10.323 6.097,10.396 14.762,9.247 3.159,-0.419 6.275,-1.426 9.309,-2.461 3.861,-1.317 4.845,-3.121 4.417,-7.284 -0.255,-2.474 -0.594,-4.941 -0.029,-7.673 2.182,2.635 4.312,5.316 6.559,7.894 2.832,3.251 5.368,6.922 8.721,9.524 9.157,7.107 19.686,8.981 30.904,6.276 7.721,-1.861 12.412,-7.253 15.475,-14.313 4.791,-11.043 6.157,-22.731 6.458,-34.594 0.557,-21.962 -4.325,-43.06 -10.598,-63.882 -3.588,-11.911 -7.997,-23.565 -14.588,-34.174 -3.59,-5.778 -7.487,-11.506 -12.071,-16.498 -19.063,-20.756 -43.6,-13.607 -56.986,-1.255 -1.008,0.931 -1.913,1.975 -3.734,3.869 -2.386,-16.058 -4.621,-31.106 -6.967,-46.897 4.511,0.521 8.29,0.935 12.064,1.397 30.228,3.702 60.443,7.513 90.687,11.077 13.734,1.619 27.504,3.038 41.297,3.994 7.244,0.503 14.601,0.183 21.853,-0.423 11.727,-0.978 16.924,-12.161 14.398,-21.998 -1.144,-4.454 -4.162,-7.706 -8.893,-8.647 -8.368,-1.666 -16.723,-3.54 -25.174,-4.617 -37.451,-4.774 -74.938,-9.265 -112.404,-13.926 -12.025,-1.496 -24.013,-3.295 -36.045,-4.735 -2.592,-0.311 -3.67,-1.187 -4.312,-3.739 -1.168,-4.649 -2.668,-9.242 -4.4,-13.715 -1.735,-4.479 -4.95,-7.897 -9.171,-10.21 -7.283,-3.993 -15.447,-0.291 -16.652,7.943 -0.685,4.681 -0.124,9.544 -0.124,14.826 -7.02,-0.992 -13.741,-1.741 -20.388,-2.913 -44.806,-7.905 -89.506,-16.354 -133.798,-26.822 -3.771,-0.892 -8.408,-0.999 -10.967,-3.319 -2.539,-2.301 -3.085,-6.898 -4.286,-10.561 -6.822,-20.814 -14.374,-41.329 -24.437,-60.84 -10.828,-20.993 -23.873,-40.401 -41.097,-56.736 -10.551,-10.006 -22.511,-17.516 -37.192,-19.988 -25.874,-4.354 -47.802,12.901 -49.604,39.16 -0.859,12.526 2.491,24.288 6.465,35.965 5.066,14.887 12.681,28.412 22.199,40.805 5.039,6.562 10.404,13.093 16.619,18.489 21.797,18.93 45.14,35.567 72.714,45.314 1.609,0.568 3.393,0.954 4.716,1.936 1.64,1.22 3.587,2.737 4.192,4.533 6.891,20.436 13.554,40.95 20.254,61.452 0.13,0.399 -0.038,0.896 -0.061,1.265" /></g><g
           transform="translate(590.2246,760.5439)"
           id="g44"><path
             id="path46"
             style="fill:#01e0c5;fill-opacity:1;fill-rule:nonzero;stroke:none"
             d="m 0,0 c -0.089,4.264 -1.622,6.64 -4.546,8.028 -2.812,1.335 -6.459,0.734 -8.618,-1.55 -1.152,-1.219 -2.05,-2.725 -2.864,-4.21 -16.039,-29.273 -32.051,-58.562 -48.059,-87.852 -0.744,-1.36 -1.55,-2.715 -2.066,-4.165 -1.197,-3.364 0.15,-7.025 3.131,-8.962 2.966,-1.929 6.898,-1.686 9.459,0.804 1.088,1.06 1.952,2.416 2.69,3.761 16.425,29.948 32.828,59.907 49.19,89.889 C -0.812,-2.661 -0.33,-0.851 0,0 m -108.545,-102.041 c 5.079,1.138 11.819,1.879 17.972,4.185 12.921,4.842 19.927,17.897 17.521,31.019 -1.364,7.439 -5.436,13.065 -11.552,17.367 -8.355,5.878 -17.885,9.217 -27.256,12.97 -4.858,1.945 -9.852,4.073 -13.995,7.173 -8.575,6.417 -6.97,17.304 2.87,21.607 8.195,3.584 16.122,2.366 23.624,-2.101 4.704,-2.801 7.482,-6.892 7.599,-12.564 0.025,-1.225 0.243,-2.479 0.58,-3.66 1.203,-4.223 4.677,-6.77 8.558,-6.383 4.198,0.419 7.452,3.663 7.542,8.115 0.228,11.23 -3.74,20.563 -13.846,26.159 -13.711,7.592 -28.14,8.502 -42.649,2.454 -8.558,-3.567 -14.208,-9.946 -15.365,-19.522 -1.256,-10.394 1.688,-19.218 10.756,-25.059 4.932,-3.177 10.287,-5.741 15.6,-8.266 5.322,-2.529 10.946,-4.432 16.216,-7.055 3.434,-1.709 6.859,-3.81 9.601,-6.449 4.456,-4.286 5.824,-9.912 4.012,-15.861 -1.761,-5.778 -6.897,-7.138 -12.082,-7.983 -2.289,-0.374 -4.649,-0.444 -6.975,-0.434 -14.874,0.068 -22.279,6.704 -24.011,21.432 -0.625,5.308 -4.071,8.423 -8.947,8.088 -4.699,-0.322 -7.972,-4.126 -7.582,-9.402 1.132,-15.286 9.526,-29.312 27.311,-33.648 4.199,-1.024 8.576,-1.316 14.498,-2.182 M -78.512,88.518 C -26.639,85.366 14.354,61.492 36.812,10.983 59.304,-39.602 44.07,-99.331 1.305,-134.65 c -27.13,-22.407 -58.414,-32.267 -93.396,-30.472 -10.566,0.541 -21.033,2.362 -31.008,6.007 -4.868,1.779 -9.096,1.298 -13.242,-1.415 -6.238,-4.082 -12.421,-8.248 -18.636,-12.365 -3.885,-2.573 -7.767,-5.153 -11.69,-7.667 -1.304,-0.834 -2.694,-1.559 -4.109,-2.189 -6.497,-2.894 -9.525,-1.194 -9.778,5.831 -0.15,4.172 0.106,8.4 0.624,12.547 1.059,8.476 2.357,16.922 3.671,25.363 1.114,7.151 -0.512,12.939 -5.493,18.752 -21.576,25.178 -31.369,54.592 -29.761,87.767 1.225,25.295 10.157,47.853 24.734,68.222 4.287,5.992 9.601,11.341 14.933,16.476 21.131,20.351 46.696,31.411 75.581,35.135 5.077,0.655 10.233,0.698 17.753,1.176" /></g><g
           transform="translate(687.6982,482.519)"
           id="g48"><path
             id="path50"
             style="fill:#fdfcfd;fill-opacity:1;fill-rule:nonzero;stroke:none"
             d="m 0,0 c 0.298,-0.403 0.597,-0.806 0.896,-1.209 4.146,1.554 8.485,2.733 12.404,4.733 11.356,5.797 20.746,13.674 25.302,26.113 1.402,3.83 2.281,7.774 1.1,11.858 -1.188,4.106 -4.419,6.422 -8.483,5.193 C 28.22,45.78 25.051,44.184 22.887,41.981 11.285,30.171 4.788,15.518 0,0 m -45.17,-55.827 c 0.583,10.248 0.133,18.64 1.74,26.619 2.209,10.973 5.394,21.843 9.203,32.381 6.522,18.043 15.163,35.181 27.499,49.97 6.008,7.201 13.142,13.781 20.781,19.216 8.225,5.851 18.246,6.715 28.284,5.475 6.051,-0.747 11.73,-2.382 16.606,-6.272 C 64.904,66.807 68.172,60.686 69.321,53.137 70.596,44.757 69.14,36.776 66.479,28.968 55.7,-2.659 34.174,-22.621 1.556,-30.412 1.103,-30.52 0.632,-30.806 0.208,-30.746 c -6.232,0.886 -7.708,-3.359 -9.099,-8.066 -2.062,-6.981 -2.987,-13.959 -1.236,-21.134 1.903,-7.797 8.009,-11.917 16.022,-10.691 9.067,1.387 16.671,5.981 23.48,11.717 5.557,4.679 10.761,9.857 15.619,15.266 7.217,8.038 11.431,7.554 15.847,-2.408 0.314,-0.709 0.583,-1.439 0.92,-2.138 4.526,-9.405 3.08,-17.131 -4.749,-24.673 -12.587,-12.125 -25.363,-23.803 -41.879,-30.252 -6.013,-2.348 -12.404,-4.407 -18.776,-5.033 -17.667,-1.736 -31.386,7.58 -37.317,24.502 -1.125,3.209 -2.156,6.534 -2.582,9.888 -0.84,6.617 -1.227,13.292 -1.628,17.941" /></g></g></g></g></svg>